<svg width="237" height="47" viewBox="0 0 237 47" fill="none" xmlns="http://www.w3.org/2000/svg">
<g id="Group 8">
<g id="Group 7">
<path id="Vector" d="M76.3747 20.8301C75.6432 20.3982 74.8092 20.1704 73.9597 20.1704C73.1102 20.1704 72.2762 20.3982 71.5447 20.8301C70.8155 21.2545 70.209 21.8609 69.7847 22.5901C69.358 23.3284 69.137 24.1675 69.1447 25.0201C69.1385 25.8631 69.3596 26.6922 69.7847 27.4201C70.209 28.1494 70.8155 28.7558 71.5447 29.1801C72.2806 29.5992 73.1129 29.8196 73.9597 29.8196C74.8066 29.8196 75.6388 29.5992 76.3747 29.1801C77.1209 28.7645 77.7424 28.1568 78.1747 27.4201C78.6106 26.6958 78.8389 25.8655 78.8347 25.0201C78.8403 24.1651 78.6121 23.3248 78.1747 22.5901C77.7424 21.8535 77.1209 21.2458 76.3747 20.8301ZM77.0047 26.8301C76.6995 27.3688 76.2568 27.8168 75.7218 28.1285C75.1869 28.4402 74.5789 28.6045 73.9597 28.6045C73.3406 28.6045 72.7325 28.4402 72.1976 28.1285C71.6627 27.8168 71.22 27.3688 70.9147 26.8301C70.5974 26.2982 70.4314 25.6896 70.4347 25.0701C70.43 24.4411 70.5959 23.8225 70.9147 23.2801C71.2085 22.7297 71.6434 22.2672 72.1747 21.9401C72.7061 21.6214 73.3151 21.4553 73.9347 21.4601C74.5575 21.4555 75.1696 21.6215 75.7047 21.9401C76.2369 22.2507 76.6783 22.6955 76.9847 23.2301C77.3036 23.7725 77.4695 24.3911 77.4647 25.0201C77.4741 25.6377 77.3151 26.2461 77.0047 26.7801V26.8301Z" fill="black"/>
<path id="Vector_2" d="M81.1748 18.6002C80.851 19.0848 80.6644 19.6481 80.6348 20.2302H79.6348V21.5202H80.6348V29.7302H81.9248V21.5202H84.1048V20.2302H81.9048C81.9604 19.6976 82.2138 19.2051 82.6148 18.8502C83.0092 18.4858 83.5278 18.2855 84.0648 18.2902V17.0002C83.4768 16.994 82.8975 17.1423 82.3848 17.4302C81.8903 17.7133 81.4743 18.1155 81.1748 18.6002Z" fill="black"/>
<path id="Vector_3" d="M87.5147 20.23H86.2047V29.73H87.5147V20.23Z" fill="black"/>
<path id="Vector_4" d="M86.8747 17.5902C86.7612 17.5868 86.6483 17.6073 86.5432 17.6503C86.4381 17.6934 86.3432 17.7581 86.2647 17.8402C86.1844 17.9137 86.1206 18.0034 86.0775 18.1034C86.0344 18.2034 86.013 18.3114 86.0147 18.4202C86.0132 18.5889 86.0618 18.7542 86.1545 18.8951C86.2471 19.0361 86.3796 19.1463 86.5351 19.2117C86.6906 19.2771 86.862 19.2947 87.0275 19.2624C87.1931 19.2301 87.3453 19.1493 87.4647 19.0302C87.5436 18.9498 87.6055 18.8544 87.6467 18.7496C87.6879 18.6448 87.7077 18.5328 87.7047 18.4202C87.7059 18.3123 87.6853 18.2054 87.644 18.1057C87.6028 18.006 87.5418 17.9157 87.4647 17.8402C87.3886 17.7606 87.297 17.6974 87.1955 17.6544C87.0941 17.6114 86.9849 17.5896 86.8747 17.5902Z" fill="black"/>
<path id="Vector_5" d="M97.5648 22.0801C97.226 21.5957 96.7901 21.187 96.2848 20.8801C95.6152 20.4812 94.8435 20.2865 94.0648 20.3201C93.2198 20.3125 92.388 20.5299 91.6548 20.9501C90.9307 21.3693 90.3297 21.9716 89.9119 22.6965C89.4942 23.4214 89.2744 24.2435 89.2748 25.0801C89.2732 25.9193 89.4941 26.744 89.9148 27.4701C90.3352 28.1903 90.9346 28.7897 91.6548 29.2101C92.388 29.6303 93.2198 29.8478 94.0648 29.8401C94.7562 29.8543 95.4398 29.693 96.0519 29.3712C96.664 29.0494 97.1845 28.5777 97.5648 28.0001V29.7501H98.8748V20.4801H97.5648V22.0801ZM97.0748 26.8501C96.6919 27.519 96.0979 28.0419 95.3858 28.3367C94.6737 28.6315 93.8838 28.6816 93.1402 28.4791C92.3966 28.2766 91.7412 27.833 91.2769 27.2178C90.8126 26.6027 90.5657 25.8508 90.5748 25.0801C90.5679 24.4629 90.7268 23.8551 91.0348 23.3201C91.3415 22.7883 91.783 22.3468 92.3148 22.0401C92.8488 21.7387 93.4516 21.5803 94.0648 21.5803C94.678 21.5803 95.2808 21.7387 95.8148 22.0401C96.3387 22.3503 96.7729 22.7914 97.0748 23.3201C97.3859 23.8543 97.5481 24.462 97.5448 25.0801C97.5444 25.6851 97.3821 26.279 97.0748 26.8001V26.8501Z" fill="black"/>
<path id="Vector_6" d="M107.275 23.7603H100.585V25.0503H107.275V23.7603Z" fill="black"/>
<path id="Vector_7" d="M115.635 25.0903L119.885 18.9303V29.6903H121.195V17.0903H119.585L115.085 23.6103L110.575 17.0903H108.985V29.7303H110.275V18.9303L114.525 25.0903H115.635Z" fill="black"/>
<path id="Vector_8" d="M125.285 29.1901C126.018 29.6103 126.85 29.8278 127.695 29.8201C128.386 29.8343 129.07 29.673 129.682 29.3512C130.294 29.0294 130.814 28.5577 131.195 27.9801V29.7301H132.505V20.4801H131.175V22.0801C130.836 21.5957 130.4 21.187 129.895 20.8801C129.225 20.4812 128.454 20.2865 127.675 20.3201C126.83 20.3125 125.998 20.5299 125.265 20.9501C124.536 21.3719 123.932 21.9789 123.514 22.7095C123.096 23.4402 122.879 24.2684 122.885 25.1101C122.883 25.9493 123.104 26.774 123.525 27.5001C123.957 28.2045 124.563 28.7864 125.285 29.1901ZM124.665 23.3001C124.971 22.771 125.408 22.33 125.935 22.0201C126.47 21.7135 127.078 21.5547 127.695 21.5601C128.309 21.5521 128.914 21.7111 129.445 22.0201C129.969 22.3303 130.403 22.7714 130.705 23.3001C131.019 23.8401 131.182 24.4552 131.175 25.0801C131.177 25.5374 131.089 25.9907 130.915 26.4135C130.741 26.8364 130.485 27.2204 130.161 27.5433C129.837 27.8662 129.452 28.1215 129.029 28.2943C128.606 28.4672 128.152 28.5541 127.695 28.5501C127.078 28.5556 126.47 28.3968 125.935 28.0901C125.406 27.7867 124.968 27.3485 124.665 26.8201C124.346 26.2954 124.177 25.6939 124.175 25.0801C124.173 24.4533 124.343 23.8379 124.665 23.3001Z" fill="black"/>
<path id="Vector_9" d="M136.565 20.5C135.977 20.7699 135.483 21.2085 135.145 21.76C134.786 22.3174 134.599 22.9674 134.605 23.6301V29.7301H135.895V23.6301C135.903 23.0516 136.136 22.4991 136.545 22.0901C136.954 21.681 137.506 21.4478 138.085 21.4401C138.384 21.4456 138.68 21.5102 138.955 21.6301L140.245 20.89C139.63 20.4039 138.868 20.1428 138.085 20.15C137.57 20.1484 137.061 20.2612 136.595 20.4801L136.565 20.5Z" fill="black"/>
<path id="Vector_10" d="M143.085 20.23H141.775V29.73H143.085V20.23Z" fill="black"/>
<path id="Vector_11" d="M143.035 17.84C142.957 17.7602 142.863 17.6968 142.76 17.6535C142.657 17.6102 142.546 17.5879 142.435 17.5879C142.323 17.5879 142.212 17.6102 142.109 17.6535C142.006 17.6968 141.913 17.7602 141.835 17.84C141.754 17.9135 141.691 18.0032 141.648 18.1032C141.604 18.2032 141.583 18.3111 141.585 18.42C141.583 18.5887 141.632 18.754 141.724 18.8949C141.817 19.0359 141.95 19.1461 142.105 19.2115C142.261 19.2769 142.432 19.2945 142.598 19.2622C142.763 19.2299 142.915 19.1491 143.035 19.03C143.114 18.9496 143.175 18.8542 143.217 18.7494C143.258 18.6446 143.278 18.5326 143.275 18.42C143.276 18.3121 143.255 18.2052 143.214 18.1055C143.173 18.0058 143.112 17.9155 143.035 17.84Z" fill="black"/>
<path id="Vector_12" d="M154.385 29.73V20.48H153.075V22.08C152.738 21.5933 152.302 21.1842 151.795 20.88C151.129 20.4796 150.361 20.2848 149.585 20.32C148.954 20.3119 148.327 20.4303 147.742 20.6682C147.157 20.906 146.626 21.2586 146.18 21.705C145.733 22.1514 145.381 22.6826 145.143 23.2674C144.905 23.8522 144.787 24.4787 144.795 25.11C144.79 25.9483 145.007 26.773 145.425 27.5C145.845 28.2294 146.451 28.8336 147.183 29.2502C147.914 29.6668 148.743 29.8808 149.585 29.87C150.275 29.8843 150.957 29.723 151.568 29.4011C152.178 29.0792 152.697 28.6074 153.075 28.03V29.78L154.385 29.73ZM152.595 26.8C152.292 27.3272 151.854 27.7648 151.328 28.0687C150.801 28.3725 150.203 28.5316 149.595 28.53C148.978 28.5369 148.37 28.378 147.835 28.07C147.304 27.7693 146.865 27.3304 146.565 26.8C146.25 26.2748 146.087 25.6724 146.095 25.06C146.087 24.4413 146.249 23.8324 146.565 23.3C146.865 22.7695 147.301 22.3287 147.829 22.0229C148.356 21.7171 148.955 21.5573 149.565 21.56C150.176 21.5532 150.777 21.7122 151.305 22.02C151.83 22.3255 152.266 22.7632 152.569 23.2895C152.873 23.8158 153.033 24.4124 153.035 25.02C153.055 25.6425 152.903 26.2585 152.595 26.8Z" fill="black"/>
<path id="Vector_13" d="M170.735 20.7802C170.635 19.7834 170.202 18.8495 169.505 18.1302C169.103 17.7584 168.63 17.4718 168.114 17.2879C167.599 17.104 167.051 17.0265 166.505 17.0602C165.963 17.0143 165.418 17.0792 164.902 17.2512C164.386 17.4231 163.911 17.6984 163.505 18.0602C163.184 18.3807 162.935 18.7659 162.775 19.1902C162.6 19.6501 162.512 20.1383 162.515 20.6302C162.515 22.6969 163.731 23.8435 166.165 24.0702C166.844 24.1122 167.516 24.2364 168.165 24.4402C168.569 24.5515 168.922 24.7987 169.165 25.1402C169.35 25.4655 169.44 25.8362 169.425 26.2102C169.431 26.53 169.361 26.8467 169.221 27.1338C169.08 27.4209 168.872 27.67 168.615 27.8602C167.949 28.2929 167.168 28.5123 166.374 28.4891C165.581 28.4658 164.814 28.2011 164.175 27.7302C163.747 27.3097 163.467 26.7627 163.375 26.1702H162.175C162.267 27.1262 162.7 28.0171 163.395 28.6802C163.83 29.0686 164.338 29.3674 164.888 29.5596C165.439 29.7518 166.022 29.8336 166.605 29.8002C167.183 29.8322 167.761 29.7478 168.305 29.5519C168.85 29.3561 169.35 29.0529 169.775 28.6602C170.11 28.3433 170.379 27.9625 170.565 27.5402C170.748 27.1208 170.844 26.668 170.845 26.2102C170.879 25.6921 170.771 25.1745 170.533 24.7129C170.295 24.2513 169.936 23.8632 169.495 23.5902C169.088 23.3446 168.641 23.172 168.175 23.0802C167.564 22.9319 166.942 22.8316 166.315 22.7802C165.679 22.7598 165.06 22.5774 164.515 22.2502C164.281 22.0615 164.099 21.8168 163.985 21.5388C163.872 21.2608 163.83 20.9586 163.865 20.6602C163.834 20.0507 164.047 19.4539 164.455 19.0002C165.033 18.5217 165.777 18.2916 166.525 18.3602C166.997 18.3182 167.473 18.4015 167.903 18.6017C168.333 18.8018 168.703 19.1117 168.975 19.5002C169.222 19.876 169.379 20.3038 169.435 20.7502L170.735 20.7802Z" fill="black"/>
<path id="Vector_14" d="M66.4548 23.6299C66.0619 23.3763 65.6292 23.1904 65.1748 23.0799C64.5636 22.9316 63.9417 22.8313 63.3148 22.7799C62.6794 22.7595 62.0598 22.5771 61.5148 22.2499C61.2811 22.0613 61.099 21.8165 60.9853 21.5385C60.8717 21.2605 60.8302 20.9583 60.8648 20.6599C60.8345 20.0504 61.0466 19.4536 61.4548 18.9999C62.0331 18.5214 62.7773 18.2913 63.5248 18.3599C63.9973 18.318 64.4726 18.4013 64.9027 18.6014C65.3328 18.8015 65.7026 19.1114 65.9748 19.4999C66.2221 19.8758 66.3795 20.3035 66.4348 20.7499H67.7448C67.6455 19.7531 67.212 18.8192 66.5148 18.0999C66.1124 17.7291 65.6393 17.4431 65.1238 17.2593C64.6084 17.0754 64.0611 16.9974 63.5148 17.0299C62.973 16.984 62.4276 17.049 61.9118 17.2209C61.396 17.3928 60.9206 17.6681 60.5148 18.0299C60.1939 18.3504 59.945 18.7357 59.7848 19.1599C59.6103 19.6199 59.5222 20.108 59.5248 20.5999C59.5248 22.6666 60.7415 23.8133 63.1748 24.0399C63.854 24.0819 64.5256 24.2062 65.1748 24.4099C65.5788 24.5212 65.932 24.7685 66.1748 25.1099C66.3564 25.4363 66.443 25.8069 66.4248 26.1799C66.4327 26.4988 66.3642 26.815 66.225 27.102C66.0859 27.3891 65.8801 27.6386 65.6248 27.8299C65.0163 28.2717 64.2759 28.4938 63.5248 28.4599C62.6757 28.5198 61.8366 28.2473 61.1848 27.6999C60.7574 27.2794 60.4769 26.7324 60.3848 26.1399H59.1748C59.2669 27.0959 59.7 27.9869 60.3948 28.6499C60.8301 29.0383 61.3376 29.3372 61.8884 29.5294C62.4391 29.7215 63.0224 29.8033 63.6048 29.7699C64.1826 29.8019 64.761 29.7175 65.3055 29.5217C65.8501 29.3258 66.3497 29.0226 66.7748 28.6299C67.1102 28.313 67.3788 27.9322 67.5648 27.5099C67.7483 27.0905 67.8436 26.6378 67.8448 26.1799C67.8619 25.6695 67.742 25.1638 67.4976 24.7154C67.2531 24.267 66.8931 23.8922 66.4548 23.6299Z" fill="black"/>
<path id="Vector_15" d="M174.315 29.3C174.886 29.6403 175.54 29.8168 176.205 29.81C176.672 29.809 177.135 29.7137 177.565 29.53C177.99 29.3458 178.37 29.0691 178.675 28.72V29.63H179.965V20.23H178.675V26.08C178.678 26.5155 178.564 26.9439 178.345 27.32C178.124 27.693 177.81 28.0029 177.435 28.22C177.062 28.4383 176.637 28.5523 176.205 28.55C175.771 28.5517 175.345 28.4388 174.969 28.2228C174.594 28.0068 174.281 27.6954 174.065 27.32C173.845 26.9439 173.731 26.5155 173.735 26.08V20.27H172.425V26.08C172.418 26.7449 172.594 27.3988 172.935 27.97C173.27 28.5268 173.746 28.9855 174.315 29.3Z" fill="black"/>
<path id="Vector_16" d="M185.745 27.9203L182.685 20.2603H181.295L185.035 29.7303H186.425L190.165 20.2603H188.785L185.745 27.9203Z" fill="black"/>
<path id="Vector_17" d="M197.775 20.8299C197.045 20.3979 196.213 20.1699 195.365 20.1699C194.517 20.1699 193.684 20.3979 192.955 20.8299C192.22 21.2551 191.611 21.8662 191.188 22.6018C190.765 23.3373 190.543 24.1714 190.545 25.0199C190.542 25.8638 190.767 26.6928 191.195 27.4199C191.616 28.1514 192.223 28.7586 192.955 29.1799C193.689 29.5991 194.519 29.8196 195.365 29.8196C196.21 29.8196 197.041 29.5991 197.775 29.1799C198.507 28.7559 199.117 28.1496 199.545 27.4199C199.981 26.6956 200.209 25.8653 200.205 25.0199C200.21 24.1649 199.982 23.3246 199.545 22.5899C199.117 21.8603 198.507 21.254 197.775 20.8299ZM198.415 26.8299C198.113 27.3441 197.687 27.774 197.175 28.0799C196.636 28.3877 196.026 28.5496 195.405 28.5496C194.784 28.5496 194.174 28.3877 193.635 28.0799C193.102 27.7655 192.661 27.3174 192.355 26.7799C192.04 26.2471 191.878 25.6385 191.885 25.0199C191.877 24.3917 192.039 23.7731 192.355 23.2299C192.664 22.6975 193.105 22.2534 193.635 21.9399C194.172 21.6253 194.783 21.4594 195.405 21.4594C196.027 21.4594 196.638 21.6253 197.175 21.9399C197.705 22.2534 198.145 22.6975 198.455 23.2299C198.771 23.7731 198.933 24.3917 198.925 25.0199C198.92 25.6423 198.743 26.2512 198.415 26.7799V26.8299Z" fill="black"/>
<path id="Vector_18" d="M205.385 20.15C204.873 20.1485 204.367 20.2612 203.905 20.48C203.322 20.7529 202.831 21.191 202.495 21.74C202.136 22.2974 201.949 22.9473 201.955 23.61V29.71H203.175V23.61C203.17 23.3231 203.224 23.0383 203.334 22.7734C203.445 22.5084 203.608 22.269 203.815 22.07C204.014 21.8629 204.253 21.6985 204.518 21.5868C204.783 21.475 205.067 21.4183 205.355 21.42C205.658 21.4252 205.957 21.4898 206.235 21.61L207.525 20.87C206.911 20.3988 206.158 20.1454 205.385 20.15Z" fill="black"/>
<path id="Vector_19" d="M214.595 20.8301C213.863 20.3982 213.029 20.1704 212.18 20.1704C211.33 20.1704 210.496 20.3982 209.765 20.8301C209.036 21.2521 208.433 21.8593 208.015 22.5901C207.58 23.3257 207.356 24.166 207.365 25.0201C207.357 25.8646 207.582 26.695 208.015 27.4201C208.433 28.151 209.036 28.7582 209.765 29.1801C210.501 29.5992 211.333 29.8196 212.18 29.8196C213.027 29.8196 213.859 29.5992 214.595 29.1801C215.327 28.7561 215.937 28.1498 216.365 27.4201C216.793 26.693 217.017 25.864 217.015 25.0201C217.019 24.1666 216.795 23.3276 216.365 22.5901C215.937 21.8605 215.327 21.2542 214.595 20.8301ZM215.225 26.8301C214.92 27.3688 214.477 27.8168 213.942 28.1285C213.407 28.4402 212.799 28.6045 212.18 28.6045C211.561 28.6045 210.953 28.4402 210.418 28.1285C209.883 27.8168 209.44 27.3688 209.135 26.8301C208.817 26.2982 208.651 25.6896 208.655 25.0701C208.65 24.4411 208.816 23.8225 209.135 23.2801C209.441 22.7455 209.883 22.3007 210.415 21.9902C210.946 21.6714 211.555 21.5053 212.175 21.5101C212.798 21.5055 213.41 21.6715 213.945 21.9902C214.477 22.3007 214.918 22.7455 215.225 23.2801C215.544 23.8225 215.71 24.4411 215.705 25.0701C215.699 25.6726 215.533 26.2627 215.225 26.7801V26.8301Z" fill="black"/>
<path id="Vector_20" d="M222.035 27.9203L218.975 20.2603H217.585L221.325 29.7303H222.715L226.455 20.2603H225.075L222.035 27.9203Z" fill="black"/>
<path id="Vector_21" d="M235.175 20.4801V22.0801C234.836 21.5957 234.4 21.187 233.895 20.8801C233.225 20.4812 232.454 20.2865 231.675 20.3201C230.83 20.3125 229.998 20.5299 229.265 20.9501C228.54 21.3649 227.94 21.9656 227.525 22.6901C227.102 23.4262 226.881 24.2611 226.885 25.1101C226.883 25.9493 227.104 26.774 227.525 27.5001C227.94 28.2247 228.54 28.8253 229.265 29.2401C229.998 29.6603 230.83 29.8778 231.675 29.8701C232.366 29.8843 233.05 29.723 233.662 29.4012C234.274 29.0794 234.794 28.6077 235.175 28.0301V29.7801H236.485V20.4801H235.175ZM234.685 26.8001C234.384 27.3294 233.947 27.7688 233.42 28.0729C232.893 28.377 232.294 28.5349 231.685 28.5301C231.068 28.5356 230.46 28.3768 229.925 28.0701C229.396 27.7667 228.958 27.3285 228.655 26.8001C228.343 26.2802 228.178 25.6861 228.175 25.0801C228.168 24.4629 228.327 23.8551 228.635 23.3201C228.941 22.791 229.378 22.35 229.905 22.0401C230.44 21.7335 231.048 21.5747 231.665 21.5801C232.279 21.5721 232.884 21.7311 233.415 22.0401C233.939 22.3503 234.373 22.7914 234.675 23.3201C234.986 23.8543 235.148 24.462 235.145 25.0801C235.132 25.6889 234.956 26.283 234.635 26.8001H234.685Z" fill="black"/>
</g>
<path id="Vector_22" d="M32.389 43.6178C36.589 40.1378 37.259 32.3678 32.209 29.1378C26.369 25.4078 17.029 28.6278 13.389 21.9278C11.959 18.5978 12.539 13.7378 15.389 11.3278C21.199 6.49776 32.279 7.76776 34.309 16.3278V16.3978H34.449V16.3278C32.759 9.32776 26.279 6.65776 19.909 7.93776C18.3325 8.22392 16.8409 8.8621 15.5452 9.80477C14.2496 10.7474 13.1834 11.9703 12.426 13.3822C11.6686 14.7942 11.2395 16.3588 11.1708 17.9596C11.1021 19.5604 11.3954 21.1561 12.029 22.6278C13.869 26.8478 18.919 27.9178 22.959 28.2178C26.539 28.6678 31.109 29.2178 33.109 32.4578C36.599 39.4578 30.649 45.5978 23.469 45.5278C18.9692 45.6785 14.5335 44.4304 10.7726 41.9553C7.01163 39.4803 4.11059 35.9001 2.46898 31.7078C-2.43102 19.7078 4.56898 5.32776 17.219 2.14776C33.619 -2.34224 47.999 13.2478 44.059 29.3778V29.4478H44.199V29.3678C45.5399 24.9239 45.498 20.1773 44.079 15.7578C38.669 -1.30224 16.299 -5.71224 5.07898 8.50776C-2.42102 17.8478 -1.57103 32.8878 7.33897 40.9478C13.399 46.7478 25.479 49.4078 32.389 43.6178Z" fill="black"/>
</g>
</svg>
